<?xml version="1.0" encoding="UTF-8"?>
<!DOCTYPE svg PUBLIC "-//W3C//DTD SVG 1.1//EN" "http://www.w3.org/Graphics/SVG/1.1/DTD/svg11.dtd">
<svg version="1.1" id="Layer_1" xmlns="http://www.w3.org/2000/svg" xmlns:xlink="http://www.w3.org/1999/xlink" x="0px" y="0px" width="16px" height="16px" viewBox="0 0 16 16" enable-background="new 0 0 16 16" xml:space="preserve">
  <g id="main">
    <g id="icon">
      <path d="M8.969,0.0377L8.694,0.1379L8.418,0.2877L0.1566,8.528L0.03906,8.705L-0,8.906L0.03906,9.106L0.1566,9.283L5.735,14.84L5.912,14.96L6.113,15L6.314,14.96L6.491,14.84L7.47,13.87L7.324,13.75L6.746,13.04L6.334,12.25L6.086,11.41L6.003,10.54L6.084,9.671L6.331,8.83L6.743,8.041L7.319,7.33L8.008,6.76L8.782,6.343L9.624,6.087L10.51,6L11.4,6.088L12.25,6.345L13.02,6.763L13.71,7.335L13.86,7.5L14.75,6.606L14.86,6.396L14.97,6.097L15,5.768L15,1.336L14.97,1.069L14.9,0.8189L14.63,0.3939L14.44,0.2301L14.22,0.1061L13.98,0.02734L13.71,0L9.268,0zM12.69,1.779L13.06,2.027L13.31,2.396L13.4,2.847L13.31,3.298L13.06,3.666L12.69,3.914L12.23,4.006L11.78,3.914L11.4,3.666L11.15,3.298L11.06,2.847L11.15,2.396L11.4,2.027L11.78,1.779L12.23,1.688zz" fill-rule="evenodd" fill="#217346"/>
    </g>
    <g id="overlay">
      <path d="M8.033,13.043c1.183,1.191,2.997,1.358,4.355,0.502l2.366,2.346c0.153,0.154,0.401,0.154,0.554,0l0.554,-0.558c0.153,-0.154,0.153,-0.404,0,-0.558l-2.364,-2.345c0.856,-1.368,0.692,-3.198,-0.494,-4.391c-1.376,-1.384,-3.604,-1.387,-4.977,-0.005C6.655,9.417,6.658,11.659,8.033,13.043zM8.892,8.894c0.907,-0.912,2.377,-0.912,3.283,0c0.907,0.912,0.907,2.392,0,3.304c-0.907,0.912,-2.377,0.912,-3.283,0C7.985,11.286,7.985,9.807,8.892,8.894z" fill-rule="evenodd" fill="#797979"/>
    </g>
  </g>
</svg>