<?xml version="1.0" encoding="UTF-8"?>
<!DOCTYPE svg PUBLIC "-//W3C//DTD SVG 1.1//EN" "http://www.w3.org/Graphics/SVG/1.1/DTD/svg11.dtd">
<svg version="1.1" id="Layer_1" xmlns="http://www.w3.org/2000/svg" xmlns:xlink="http://www.w3.org/1999/xlink" x="0px" y="0px" width="32px" height="32px" viewBox="0 0 32 32" enable-background="new 0 0 32 32" xml:space="preserve">
  <g id="main">
    <g id="icon">
      <path d="M17.92,0.06895L17.37,0.2633L17.08,0.3658L16.82,0.5566L0.3713,17.06L0.1375,17.42L0.05938,17.82L0.1375,18.22L0.3713,18.57L11.48,29.72L11.83,29.95L12.23,30.03L12.63,29.95L12.98,29.72L16.72,25.96L16.51,25.5L16.29,24.87L16.13,24.22L16.04,23.57L16,22.9L16.04,22.24L16.13,21.58L16.28,20.94L16.5,20.3L16.79,19.69L17.13,19.1L17.54,18.55L18.01,18.02L18.51,17.56L19.05,17.16L19.63,16.81L20.23,16.52L20.86,16.3L21.51,16.13L22.18,16.03L22.86,16L23.54,16.03L24.21,16.13L24.87,16.3L25.5,16.52L25.92,16.73L29.43,13.21L29.59,13.01L29.69,12.79L29.92,12.19L30,11.53L30,2.651L29.95,2.116L29.79,1.619L29.55,1.169L29.23,0.7764L28.84,0.4527L28.39,0.2082L27.89,0.05391L27.36,0L18.51,0zM25.33,2.903L25.77,3.039L26.16,3.253L26.51,3.536L26.79,3.88L27.01,4.274L27.14,4.71L27.19,5.178L27.14,5.646L27.01,6.082L26.79,6.477L26.51,6.82L26.16,7.104L25.77,7.318L25.33,7.453L24.86,7.5L24.4,7.453L23.96,7.318L23.56,7.104L23.22,6.82L22.94,6.477L22.72,6.082L22.59,5.646L22.54,5.178L22.59,4.71L22.72,4.274L22.94,3.88L23.22,3.536L23.56,3.253L23.96,3.039L24.4,2.903L24.86,2.856zz" fill-rule="evenodd" fill="#217346"/>
    </g>
    <g id="overlay">
      <path d="M18.724,27.084c1.975,1.987,5.001,2.266,7.267,0.838l3.947,3.915c0.255,0.257,0.67,0.257,0.925,0l0.925,-0.931c0.255,-0.257,0.255,-0.674,0,-0.931l-3.945,-3.913c1.429,-2.282,1.155,-5.336,-0.824,-7.327c-2.295,-2.31,-6.013,-2.314,-8.304,-0.008C16.425,21.032,16.429,24.774,18.724,27.084zM20.157,20.161c1.513,-1.523,3.966,-1.523,5.479,0c1.513,1.523,1.513,3.991,0,5.514c-1.513,1.523,-3.966,1.523,-5.479,0C18.644,24.152,18.644,21.684,20.157,20.161z" fill-rule="evenodd" fill="#797979"/>
    </g>
  </g>
</svg>